%TF.GenerationSoftware,KiCad,Pcbnew,7.0.9*%
%TF.CreationDate,2025-02-23T20:23:03+01:00*%
%TF.ProjectId,filament-jar,66696c61-6d65-46e7-942d-6a61722e6b69,rev?*%
%TF.SameCoordinates,Original*%
%TF.FileFunction,Legend,Top*%
%TF.FilePolarity,Positive*%
%FSLAX46Y46*%
G04 Gerber Fmt 4.6, Leading zero omitted, Abs format (unit mm)*
G04 Created by KiCad (PCBNEW 7.0.9) date 2025-02-23 20:23:03*
%MOMM*%
%LPD*%
G01*
G04 APERTURE LIST*
%ADD10C,0.100000*%
%ADD11C,0.150000*%
%ADD12C,0.120000*%
G04 APERTURE END LIST*
D10*
X104562931Y-80324609D02*
X104324836Y-80324609D01*
X104324836Y-80324609D02*
X104324836Y-79824609D01*
X104729598Y-80062704D02*
X104896265Y-80062704D01*
X104967693Y-80324609D02*
X104729598Y-80324609D01*
X104729598Y-80324609D02*
X104729598Y-79824609D01*
X104729598Y-79824609D02*
X104967693Y-79824609D01*
X105181979Y-80324609D02*
X105181979Y-79824609D01*
X105181979Y-79824609D02*
X105301027Y-79824609D01*
X105301027Y-79824609D02*
X105372455Y-79848419D01*
X105372455Y-79848419D02*
X105420074Y-79896038D01*
X105420074Y-79896038D02*
X105443884Y-79943657D01*
X105443884Y-79943657D02*
X105467693Y-80038895D01*
X105467693Y-80038895D02*
X105467693Y-80110323D01*
X105467693Y-80110323D02*
X105443884Y-80205561D01*
X105443884Y-80205561D02*
X105420074Y-80253180D01*
X105420074Y-80253180D02*
X105372455Y-80300800D01*
X105372455Y-80300800D02*
X105301027Y-80324609D01*
X105301027Y-80324609D02*
X105181979Y-80324609D01*
X97831931Y-80324609D02*
X97593836Y-80324609D01*
X97593836Y-80324609D02*
X97593836Y-79824609D01*
X97998598Y-80062704D02*
X98165265Y-80062704D01*
X98236693Y-80324609D02*
X97998598Y-80324609D01*
X97998598Y-80324609D02*
X97998598Y-79824609D01*
X97998598Y-79824609D02*
X98236693Y-79824609D01*
X98450979Y-80324609D02*
X98450979Y-79824609D01*
X98450979Y-79824609D02*
X98570027Y-79824609D01*
X98570027Y-79824609D02*
X98641455Y-79848419D01*
X98641455Y-79848419D02*
X98689074Y-79896038D01*
X98689074Y-79896038D02*
X98712884Y-79943657D01*
X98712884Y-79943657D02*
X98736693Y-80038895D01*
X98736693Y-80038895D02*
X98736693Y-80110323D01*
X98736693Y-80110323D02*
X98712884Y-80205561D01*
X98712884Y-80205561D02*
X98689074Y-80253180D01*
X98689074Y-80253180D02*
X98641455Y-80300800D01*
X98641455Y-80300800D02*
X98570027Y-80324609D01*
X98570027Y-80324609D02*
X98450979Y-80324609D01*
X103793027Y-63409800D02*
X103864455Y-63433609D01*
X103864455Y-63433609D02*
X103983503Y-63433609D01*
X103983503Y-63433609D02*
X104031122Y-63409800D01*
X104031122Y-63409800D02*
X104054931Y-63385990D01*
X104054931Y-63385990D02*
X104078741Y-63338371D01*
X104078741Y-63338371D02*
X104078741Y-63290752D01*
X104078741Y-63290752D02*
X104054931Y-63243133D01*
X104054931Y-63243133D02*
X104031122Y-63219323D01*
X104031122Y-63219323D02*
X103983503Y-63195514D01*
X103983503Y-63195514D02*
X103888265Y-63171704D01*
X103888265Y-63171704D02*
X103840646Y-63147895D01*
X103840646Y-63147895D02*
X103816836Y-63124085D01*
X103816836Y-63124085D02*
X103793027Y-63076466D01*
X103793027Y-63076466D02*
X103793027Y-63028847D01*
X103793027Y-63028847D02*
X103816836Y-62981228D01*
X103816836Y-62981228D02*
X103840646Y-62957419D01*
X103840646Y-62957419D02*
X103888265Y-62933609D01*
X103888265Y-62933609D02*
X104007312Y-62933609D01*
X104007312Y-62933609D02*
X104078741Y-62957419D01*
X104245407Y-62933609D02*
X104364455Y-63433609D01*
X104364455Y-63433609D02*
X104459693Y-63076466D01*
X104459693Y-63076466D02*
X104554931Y-63433609D01*
X104554931Y-63433609D02*
X104673979Y-62933609D01*
X95745009Y-70320550D02*
X95721200Y-70296741D01*
X95721200Y-70296741D02*
X95697390Y-70225312D01*
X95697390Y-70225312D02*
X95697390Y-70177693D01*
X95697390Y-70177693D02*
X95721200Y-70106265D01*
X95721200Y-70106265D02*
X95768819Y-70058646D01*
X95768819Y-70058646D02*
X95816438Y-70034836D01*
X95816438Y-70034836D02*
X95911676Y-70011027D01*
X95911676Y-70011027D02*
X95983104Y-70011027D01*
X95983104Y-70011027D02*
X96078342Y-70034836D01*
X96078342Y-70034836D02*
X96125961Y-70058646D01*
X96125961Y-70058646D02*
X96173580Y-70106265D01*
X96173580Y-70106265D02*
X96197390Y-70177693D01*
X96197390Y-70177693D02*
X96197390Y-70225312D01*
X96197390Y-70225312D02*
X96173580Y-70296741D01*
X96173580Y-70296741D02*
X96149771Y-70320550D01*
X95697390Y-70534836D02*
X96197390Y-70534836D01*
X95959295Y-70534836D02*
X95959295Y-70820550D01*
X95697390Y-70820550D02*
X96197390Y-70820550D01*
X95840247Y-71034837D02*
X95840247Y-71272932D01*
X95697390Y-70987218D02*
X96197390Y-71153884D01*
X96197390Y-71153884D02*
X95697390Y-71320551D01*
X95697390Y-71772931D02*
X95935485Y-71606265D01*
X95697390Y-71487217D02*
X96197390Y-71487217D01*
X96197390Y-71487217D02*
X96197390Y-71677693D01*
X96197390Y-71677693D02*
X96173580Y-71725312D01*
X96173580Y-71725312D02*
X96149771Y-71749122D01*
X96149771Y-71749122D02*
X96102152Y-71772931D01*
X96102152Y-71772931D02*
X96030723Y-71772931D01*
X96030723Y-71772931D02*
X95983104Y-71749122D01*
X95983104Y-71749122D02*
X95959295Y-71725312D01*
X95959295Y-71725312D02*
X95935485Y-71677693D01*
X95935485Y-71677693D02*
X95935485Y-71487217D01*
X96173580Y-72249122D02*
X96197390Y-72201503D01*
X96197390Y-72201503D02*
X96197390Y-72130074D01*
X96197390Y-72130074D02*
X96173580Y-72058646D01*
X96173580Y-72058646D02*
X96125961Y-72011027D01*
X96125961Y-72011027D02*
X96078342Y-71987217D01*
X96078342Y-71987217D02*
X95983104Y-71963408D01*
X95983104Y-71963408D02*
X95911676Y-71963408D01*
X95911676Y-71963408D02*
X95816438Y-71987217D01*
X95816438Y-71987217D02*
X95768819Y-72011027D01*
X95768819Y-72011027D02*
X95721200Y-72058646D01*
X95721200Y-72058646D02*
X95697390Y-72130074D01*
X95697390Y-72130074D02*
X95697390Y-72177693D01*
X95697390Y-72177693D02*
X95721200Y-72249122D01*
X95721200Y-72249122D02*
X95745009Y-72272931D01*
X95745009Y-72272931D02*
X95911676Y-72272931D01*
X95911676Y-72272931D02*
X95911676Y-72177693D01*
X95959295Y-72487217D02*
X95959295Y-72653884D01*
X95697390Y-72725312D02*
X95697390Y-72487217D01*
X95697390Y-72487217D02*
X96197390Y-72487217D01*
X96197390Y-72487217D02*
X96197390Y-72725312D01*
X95697390Y-73225312D02*
X95935485Y-73058646D01*
X95697390Y-72939598D02*
X96197390Y-72939598D01*
X96197390Y-72939598D02*
X96197390Y-73130074D01*
X96197390Y-73130074D02*
X96173580Y-73177693D01*
X96173580Y-73177693D02*
X96149771Y-73201503D01*
X96149771Y-73201503D02*
X96102152Y-73225312D01*
X96102152Y-73225312D02*
X96030723Y-73225312D01*
X96030723Y-73225312D02*
X95983104Y-73201503D01*
X95983104Y-73201503D02*
X95959295Y-73177693D01*
X95959295Y-73177693D02*
X95935485Y-73130074D01*
X95935485Y-73130074D02*
X95935485Y-72939598D01*
X95959295Y-63597503D02*
X95935485Y-63668931D01*
X95935485Y-63668931D02*
X95911676Y-63692741D01*
X95911676Y-63692741D02*
X95864057Y-63716550D01*
X95864057Y-63716550D02*
X95792628Y-63716550D01*
X95792628Y-63716550D02*
X95745009Y-63692741D01*
X95745009Y-63692741D02*
X95721200Y-63668931D01*
X95721200Y-63668931D02*
X95697390Y-63621312D01*
X95697390Y-63621312D02*
X95697390Y-63430836D01*
X95697390Y-63430836D02*
X96197390Y-63430836D01*
X96197390Y-63430836D02*
X96197390Y-63597503D01*
X96197390Y-63597503D02*
X96173580Y-63645122D01*
X96173580Y-63645122D02*
X96149771Y-63668931D01*
X96149771Y-63668931D02*
X96102152Y-63692741D01*
X96102152Y-63692741D02*
X96054533Y-63692741D01*
X96054533Y-63692741D02*
X96006914Y-63668931D01*
X96006914Y-63668931D02*
X95983104Y-63645122D01*
X95983104Y-63645122D02*
X95959295Y-63597503D01*
X95959295Y-63597503D02*
X95959295Y-63430836D01*
X95840247Y-63907027D02*
X95840247Y-64145122D01*
X95697390Y-63859408D02*
X96197390Y-64026074D01*
X96197390Y-64026074D02*
X95697390Y-64192741D01*
X96197390Y-64287979D02*
X96197390Y-64573693D01*
X95697390Y-64430836D02*
X96197390Y-64430836D01*
X96197390Y-64668931D02*
X96197390Y-64954645D01*
X95697390Y-64811788D02*
X96197390Y-64811788D01*
X95959295Y-65121311D02*
X95959295Y-65287978D01*
X95697390Y-65359406D02*
X95697390Y-65121311D01*
X95697390Y-65121311D02*
X96197390Y-65121311D01*
X96197390Y-65121311D02*
X96197390Y-65359406D01*
X95697390Y-65859406D02*
X95935485Y-65692740D01*
X95697390Y-65573692D02*
X96197390Y-65573692D01*
X96197390Y-65573692D02*
X96197390Y-65764168D01*
X96197390Y-65764168D02*
X96173580Y-65811787D01*
X96173580Y-65811787D02*
X96149771Y-65835597D01*
X96149771Y-65835597D02*
X96102152Y-65859406D01*
X96102152Y-65859406D02*
X96030723Y-65859406D01*
X96030723Y-65859406D02*
X95983104Y-65835597D01*
X95983104Y-65835597D02*
X95959295Y-65811787D01*
X95959295Y-65811787D02*
X95935485Y-65764168D01*
X95935485Y-65764168D02*
X95935485Y-65573692D01*
X95935485Y-66168930D02*
X95697390Y-66168930D01*
X96197390Y-66002264D02*
X95935485Y-66168930D01*
X95935485Y-66168930D02*
X96197390Y-66335597D01*
D11*
X100076000Y-63500000D02*
X100838000Y-63500000D01*
D10*
X95250000Y-73406000D02*
X95250000Y-74168000D01*
D11*
X108204000Y-63500000D02*
X108204000Y-62738000D01*
D10*
X95250000Y-74168000D02*
X94488000Y-74168000D01*
X94488000Y-62230000D02*
X95250000Y-62230000D01*
X95250000Y-66548000D02*
X95250000Y-67310000D01*
D11*
X107442000Y-63500000D02*
X108204000Y-63500000D01*
X100076000Y-62738000D02*
X100076000Y-63500000D01*
D10*
X95250000Y-62230000D02*
X95250000Y-62992000D01*
X95250000Y-69088000D02*
X95250000Y-69850000D01*
X95250000Y-67310000D02*
X94488000Y-67310000D01*
X94488000Y-69088000D02*
X95250000Y-69088000D01*
D11*
X91768055Y-63495700D02*
X92339484Y-63495700D01*
X92053769Y-63781414D02*
X92053769Y-63209985D01*
X94206455Y-76932300D02*
X94777884Y-76932300D01*
X94492169Y-77218014D02*
X94492169Y-76646585D01*
X101115255Y-76932300D02*
X101686684Y-76932300D01*
X91994500Y-73255744D02*
X91994500Y-72684316D01*
X107973255Y-76932300D02*
X108544684Y-76932300D01*
X108258969Y-77218014D02*
X108258969Y-76646585D01*
X91994500Y-66270744D02*
X91994500Y-65699316D01*
X91768055Y-70480700D02*
X92339484Y-70480700D01*
X92053769Y-70766414D02*
X92053769Y-70194985D01*
X109785571Y-65363164D02*
X109785571Y-64613164D01*
X110214142Y-65363164D02*
X109892714Y-64934592D01*
X110214142Y-64613164D02*
X109785571Y-65041735D01*
D12*
%TO.C,REF\u002A\u002A*%
X99060000Y-74144000D02*
X99060000Y-73374000D01*
X97690000Y-73374000D02*
X100430000Y-73374000D01*
X100430000Y-73374000D02*
X100430000Y-66834000D01*
X97690000Y-66834000D02*
X97690000Y-73374000D01*
X100430000Y-66834000D02*
X97690000Y-66834000D01*
X99060000Y-66064000D02*
X99060000Y-66834000D01*
X108204000Y-66164000D02*
X108204000Y-67384000D01*
X109674000Y-67384000D02*
X106734000Y-67384000D01*
X106734000Y-67384000D02*
X106734000Y-72824000D01*
X109674000Y-68164000D02*
X106734000Y-68164000D01*
X109674000Y-68284000D02*
X106734000Y-68284000D01*
X109674000Y-68404000D02*
X106734000Y-68404000D01*
X109674000Y-72824000D02*
X109674000Y-67384000D01*
X106734000Y-72824000D02*
X109674000Y-72824000D01*
X108204000Y-74044000D02*
X108204000Y-72824000D01*
X103632000Y-74144000D02*
X103632000Y-73374000D01*
X102262000Y-73374000D02*
X105002000Y-73374000D01*
X105002000Y-73374000D02*
X105002000Y-66834000D01*
X102262000Y-66834000D02*
X102262000Y-73374000D01*
X105002000Y-66834000D02*
X102262000Y-66834000D01*
X103632000Y-66064000D02*
X103632000Y-66834000D01*
%TD*%
M02*
