%TF.GenerationSoftware,KiCad,Pcbnew,7.0.9*%
%TF.CreationDate,2025-02-23T20:23:03+01:00*%
%TF.ProjectId,filament-jar,66696c61-6d65-46e7-942d-6a61722e6b69,rev?*%
%TF.SameCoordinates,Original*%
%TF.FileFunction,Copper,L1,Top*%
%TF.FilePolarity,Positive*%
%FSLAX46Y46*%
G04 Gerber Fmt 4.6, Leading zero omitted, Abs format (unit mm)*
G04 Created by KiCad (PCBNEW 7.0.9) date 2025-02-23 20:23:03*
%MOMM*%
%LPD*%
G01*
G04 APERTURE LIST*
G04 Aperture macros list*
%AMRoundRect*
0 Rectangle with rounded corners*
0 $1 Rounding radius*
0 $2 $3 $4 $5 $6 $7 $8 $9 X,Y pos of 4 corners*
0 Add a 4 corners polygon primitive as box body*
4,1,4,$2,$3,$4,$5,$6,$7,$8,$9,$2,$3,0*
0 Add four circle primitives for the rounded corners*
1,1,$1+$1,$2,$3*
1,1,$1+$1,$4,$5*
1,1,$1+$1,$6,$7*
1,1,$1+$1,$8,$9*
0 Add four rect primitives between the rounded corners*
20,1,$1+$1,$2,$3,$4,$5,0*
20,1,$1+$1,$4,$5,$6,$7,0*
20,1,$1+$1,$6,$7,$8,$9,0*
20,1,$1+$1,$8,$9,$2,$3,0*%
G04 Aperture macros list end*
%TA.AperFunction,ConnectorPad*%
%ADD10RoundRect,0.500000X-0.500000X-1.000000X0.500000X-1.000000X0.500000X1.000000X-0.500000X1.000000X0*%
%TD*%
%TA.AperFunction,ConnectorPad*%
%ADD11RoundRect,0.350000X0.750000X-0.350000X0.750000X0.350000X-0.750000X0.350000X-0.750000X-0.350000X0*%
%TD*%
%TA.AperFunction,ComponentPad*%
%ADD12C,1.600000*%
%TD*%
%TA.AperFunction,ComponentPad*%
%ADD13O,1.600000X1.600000*%
%TD*%
%TA.AperFunction,ConnectorPad*%
%ADD14RoundRect,0.500000X-0.500000X-0.600000X0.500000X-0.600000X0.500000X0.600000X-0.500000X0.600000X0*%
%TD*%
%TA.AperFunction,ComponentPad*%
%ADD15R,1.600000X1.600000*%
%TD*%
%TA.AperFunction,Conductor*%
%ADD16C,0.250000*%
%TD*%
%TA.AperFunction,Conductor*%
%ADD17C,0.300000*%
%TD*%
G04 APERTURE END LIST*
D10*
%TO.P,,*%
%TO.N,LED*%
X108204000Y-78994000D03*
%TD*%
%TO.P,,*%
%TO.N,GND*%
X101346000Y-78994000D03*
%TD*%
D11*
%TO.P,,*%
%TO.N,VCC*%
X93726000Y-70358000D03*
%TD*%
%TO.P,,*%
%TO.N,GND*%
X93726000Y-72898000D03*
%TD*%
D12*
%TO.P,REF\u002A\u002A,1*%
%TO.N,LED*%
X99060000Y-75184000D03*
D13*
%TO.P,REF\u002A\u002A,2*%
%TO.N,VCC*%
X99060000Y-65024000D03*
%TD*%
D14*
%TO.P,,*%
%TO.N,VCC*%
X101600000Y-61976000D03*
%TD*%
D15*
%TO.P,REF\u002A\u002A,1*%
%TO.N,VCC*%
X108204000Y-65024000D03*
D13*
%TO.P,REF\u002A\u002A,2*%
X108204000Y-75184000D03*
%TD*%
D12*
%TO.P,REF\u002A\u002A,1*%
%TO.N,LED*%
X103632000Y-75184000D03*
D13*
%TO.P,REF\u002A\u002A,2*%
%TO.N,VCC*%
X103632000Y-65024000D03*
%TD*%
D11*
%TO.P,,*%
%TO.N,GND*%
X93726000Y-66040000D03*
%TD*%
%TO.P,,*%
%TO.N,VCC*%
X93726000Y-63500000D03*
%TD*%
D10*
%TO.P,,*%
%TO.N,LED*%
X94488000Y-78994000D03*
%TD*%
D14*
%TO.P,,*%
%TO.N,VCC*%
X106680000Y-61976000D03*
%TD*%
D16*
%TO.N,VCC*%
X91948000Y-65278000D02*
X95250000Y-61976000D01*
X95250000Y-61976000D02*
X101600000Y-61976000D01*
X91948000Y-68580000D02*
X91948000Y-65278000D01*
X108458000Y-61976000D02*
X106680000Y-61976000D01*
X110490000Y-64008000D02*
X108458000Y-61976000D01*
X110490000Y-72898000D02*
X110490000Y-64008000D01*
X108204000Y-75184000D02*
X110490000Y-72898000D01*
X93726000Y-70358000D02*
X91948000Y-68580000D01*
X108204000Y-65024000D02*
X99060000Y-65024000D01*
D17*
%TO.N,GND*%
X99314000Y-70866000D02*
X96266000Y-70866000D01*
D16*
X96266000Y-68072000D02*
X96266000Y-70866000D01*
D17*
X101346000Y-72898000D02*
X99314000Y-70866000D01*
X101346000Y-79248000D02*
X101346000Y-72898000D01*
D16*
X94234000Y-66040000D02*
X96266000Y-68072000D01*
X96266000Y-70866000D02*
X94234000Y-72898000D01*
%TO.N,LED*%
X103632000Y-75692000D02*
X103632000Y-77597000D01*
X99060000Y-77470000D02*
X97536000Y-78994000D01*
X99060000Y-75184000D02*
X99060000Y-77470000D01*
X105029000Y-78994000D02*
X108204000Y-78994000D01*
X103632000Y-77597000D02*
X105029000Y-78994000D01*
X97536000Y-78994000D02*
X94488000Y-78994000D01*
%TD*%
%TA.AperFunction,NonConductor*%
G36*
X108322139Y-62736213D02*
G01*
X108359090Y-62761680D01*
X109109229Y-63511819D01*
X109142714Y-63573142D01*
X109137730Y-63642834D01*
X109095858Y-63698767D01*
X109030394Y-63723184D01*
X109021548Y-63723500D01*
X107649354Y-63723500D01*
X107582315Y-63703815D01*
X107536560Y-63651011D01*
X107526616Y-63581853D01*
X107555641Y-63518297D01*
X107591937Y-63489595D01*
X107733407Y-63415698D01*
X107891109Y-63287109D01*
X108019698Y-63129407D01*
X108113909Y-62949049D01*
X108152194Y-62815248D01*
X108189560Y-62756212D01*
X108252914Y-62726748D01*
X108322139Y-62736213D01*
G37*
%TD.AperFunction*%
%TA.AperFunction,NonConductor*%
G36*
X111194539Y-50820185D02*
G01*
X111240294Y-50872989D01*
X111251500Y-50924500D01*
X111251500Y-63610319D01*
X111231815Y-63677358D01*
X111179011Y-63723113D01*
X111109853Y-63733057D01*
X111046297Y-63704032D01*
X111027188Y-63683213D01*
X111015092Y-63666564D01*
X111011898Y-63661703D01*
X110988170Y-63621580D01*
X110988168Y-63621578D01*
X110988165Y-63621574D01*
X110974006Y-63607415D01*
X110961368Y-63592619D01*
X110949656Y-63576499D01*
X110949594Y-63576413D01*
X110913688Y-63546709D01*
X110909376Y-63542786D01*
X108958803Y-61592212D01*
X108948980Y-61579950D01*
X108948759Y-61580134D01*
X108943786Y-61574123D01*
X108925159Y-61556631D01*
X108893364Y-61526773D01*
X108882919Y-61516328D01*
X108872475Y-61505883D01*
X108866986Y-61501625D01*
X108862561Y-61497847D01*
X108828582Y-61465938D01*
X108828580Y-61465936D01*
X108828577Y-61465935D01*
X108811029Y-61456288D01*
X108794763Y-61445604D01*
X108778933Y-61433325D01*
X108736168Y-61414818D01*
X108730922Y-61412248D01*
X108690093Y-61389803D01*
X108690092Y-61389802D01*
X108670693Y-61384822D01*
X108652281Y-61378518D01*
X108633898Y-61370562D01*
X108633892Y-61370560D01*
X108587874Y-61363272D01*
X108582152Y-61362087D01*
X108537021Y-61350500D01*
X108537019Y-61350500D01*
X108516984Y-61350500D01*
X108497586Y-61348973D01*
X108490162Y-61347797D01*
X108477805Y-61345840D01*
X108477804Y-61345840D01*
X108431416Y-61350225D01*
X108425578Y-61350500D01*
X108296857Y-61350500D01*
X108229818Y-61330815D01*
X108184063Y-61278011D01*
X108173344Y-61237480D01*
X108169886Y-61198584D01*
X108169886Y-61198583D01*
X108169886Y-61198582D01*
X108113909Y-61002951D01*
X108019698Y-60822593D01*
X107891109Y-60664891D01*
X107891105Y-60664886D01*
X107889404Y-60663185D01*
X107888767Y-60662018D01*
X107887135Y-60660017D01*
X107887508Y-60659712D01*
X107855919Y-60601862D01*
X107860903Y-60532170D01*
X107902775Y-60476237D01*
X107929799Y-60460874D01*
X107949999Y-60452540D01*
X107950000Y-60452541D01*
X107950383Y-60452383D01*
X107950500Y-60452099D01*
X107950541Y-60452000D01*
X107950540Y-60451997D01*
X107950583Y-60427889D01*
X107950500Y-60427467D01*
X107950500Y-50924500D01*
X107970185Y-50857461D01*
X108022989Y-50811706D01*
X108074500Y-50800500D01*
X111127500Y-50800500D01*
X111194539Y-50820185D01*
G37*
%TD.AperFunction*%
%TA.AperFunction,NonConductor*%
G36*
X94684539Y-50820185D02*
G01*
X94730294Y-50872989D01*
X94741500Y-50924500D01*
X94741500Y-60427467D01*
X94741416Y-60427889D01*
X94741459Y-60452001D01*
X94741500Y-60452099D01*
X94741616Y-60452382D01*
X94741618Y-60452384D01*
X94741808Y-60452462D01*
X94742000Y-60452541D01*
X94742002Y-60452539D01*
X94766616Y-60452524D01*
X94766616Y-60452528D01*
X94766760Y-60452500D01*
X100301919Y-60452500D01*
X100368958Y-60472185D01*
X100414713Y-60524989D01*
X100424657Y-60594147D01*
X100395632Y-60657703D01*
X100389600Y-60664181D01*
X100388894Y-60664886D01*
X100260304Y-60822590D01*
X100166089Y-61002954D01*
X100110114Y-61198583D01*
X100110113Y-61198587D01*
X100106656Y-61237480D01*
X100081112Y-61302513D01*
X100024464Y-61343413D01*
X99983143Y-61350500D01*
X95332737Y-61350500D01*
X95317120Y-61348776D01*
X95317093Y-61349062D01*
X95309331Y-61348327D01*
X95240203Y-61350500D01*
X95210650Y-61350500D01*
X95209929Y-61350590D01*
X95203757Y-61351369D01*
X95197945Y-61351826D01*
X95151373Y-61353290D01*
X95151372Y-61353290D01*
X95132129Y-61358881D01*
X95113079Y-61362825D01*
X95093211Y-61365334D01*
X95093209Y-61365335D01*
X95049884Y-61382488D01*
X95044357Y-61384380D01*
X94999610Y-61397381D01*
X94999609Y-61397382D01*
X94982367Y-61407579D01*
X94964899Y-61416137D01*
X94946269Y-61423513D01*
X94946267Y-61423514D01*
X94908576Y-61450898D01*
X94903694Y-61454105D01*
X94863579Y-61477830D01*
X94849408Y-61492000D01*
X94834623Y-61504628D01*
X94818412Y-61516407D01*
X94788709Y-61552310D01*
X94784777Y-61556631D01*
X94078228Y-62263181D01*
X94016905Y-62296666D01*
X93990547Y-62299500D01*
X92902045Y-62299500D01*
X92860500Y-62302317D01*
X92680978Y-62346963D01*
X92680976Y-62346964D01*
X92515249Y-62429156D01*
X92371059Y-62545059D01*
X92255156Y-62689249D01*
X92172964Y-62854976D01*
X92172963Y-62854978D01*
X92128317Y-63034500D01*
X92125500Y-63076045D01*
X92125500Y-63923955D01*
X92128317Y-63965499D01*
X92142855Y-64023954D01*
X92160189Y-64093657D01*
X92160709Y-64095745D01*
X92157785Y-64165553D01*
X92128055Y-64213352D01*
X91652181Y-64689227D01*
X91590858Y-64722712D01*
X91521167Y-64717728D01*
X91465233Y-64675857D01*
X91440816Y-64610392D01*
X91440500Y-64601546D01*
X91440500Y-50924500D01*
X91460185Y-50857461D01*
X91512989Y-50811706D01*
X91564500Y-50800500D01*
X94617500Y-50800500D01*
X94684539Y-50820185D01*
G37*
%TD.AperFunction*%
%TA.AperFunction,NonConductor*%
G36*
X92727406Y-67204583D02*
G01*
X92860505Y-67237683D01*
X92898785Y-67240278D01*
X92902045Y-67240500D01*
X92902046Y-67240500D01*
X94498548Y-67240500D01*
X94565587Y-67260185D01*
X94586229Y-67276819D01*
X95604181Y-68294771D01*
X95637666Y-68356094D01*
X95640500Y-68382452D01*
X95640500Y-70555546D01*
X95620815Y-70622585D01*
X95604181Y-70643227D01*
X95538181Y-70709227D01*
X95476858Y-70742712D01*
X95407166Y-70737728D01*
X95351233Y-70695856D01*
X95326816Y-70630392D01*
X95326500Y-70621546D01*
X95326500Y-69934045D01*
X95326237Y-69930179D01*
X95323683Y-69892505D01*
X95279037Y-69712979D01*
X95196842Y-69547247D01*
X95146945Y-69485173D01*
X95080940Y-69403059D01*
X94978785Y-69320945D01*
X94936753Y-69287158D01*
X94936751Y-69287157D01*
X94936750Y-69287156D01*
X94771023Y-69204964D01*
X94771021Y-69204963D01*
X94591497Y-69160317D01*
X94591501Y-69160317D01*
X94549955Y-69157500D01*
X94549954Y-69157500D01*
X93461452Y-69157500D01*
X93394413Y-69137815D01*
X93373771Y-69121181D01*
X92609819Y-68357228D01*
X92576334Y-68295905D01*
X92573500Y-68269547D01*
X92573500Y-67324922D01*
X92593185Y-67257883D01*
X92645989Y-67212128D01*
X92715147Y-67202184D01*
X92727406Y-67204583D01*
G37*
%TD.AperFunction*%
%TA.AperFunction,NonConductor*%
G36*
X105448958Y-60472185D02*
G01*
X105494713Y-60524989D01*
X105504657Y-60594147D01*
X105475632Y-60657703D01*
X105469600Y-60664181D01*
X105468894Y-60664886D01*
X105340304Y-60822590D01*
X105246089Y-61002954D01*
X105190114Y-61198583D01*
X105190113Y-61198586D01*
X105179500Y-61317965D01*
X105179500Y-61317966D01*
X105179501Y-62634032D01*
X105179501Y-62634033D01*
X105190113Y-62753415D01*
X105246089Y-62949045D01*
X105246090Y-62949048D01*
X105246091Y-62949049D01*
X105340302Y-63129407D01*
X105340304Y-63129409D01*
X105468890Y-63287109D01*
X105562803Y-63363684D01*
X105626593Y-63415698D01*
X105806951Y-63509909D01*
X106002582Y-63565886D01*
X106121963Y-63576500D01*
X106121964Y-63576499D01*
X106121965Y-63576500D01*
X106121966Y-63576500D01*
X106121981Y-63576499D01*
X107061226Y-63576499D01*
X107128265Y-63596183D01*
X107174020Y-63648987D01*
X107183964Y-63718146D01*
X107154939Y-63781702D01*
X107135538Y-63799765D01*
X107046452Y-63866455D01*
X106960206Y-63981664D01*
X106960202Y-63981671D01*
X106909908Y-64116517D01*
X106903501Y-64176116D01*
X106903500Y-64176135D01*
X106903500Y-64274500D01*
X106883815Y-64341539D01*
X106831011Y-64387294D01*
X106779500Y-64398500D01*
X104846188Y-64398500D01*
X104779149Y-64378815D01*
X104744613Y-64345623D01*
X104632045Y-64184858D01*
X104471141Y-64023954D01*
X104284734Y-63893432D01*
X104284732Y-63893431D01*
X104078497Y-63797261D01*
X104078488Y-63797258D01*
X103858697Y-63738366D01*
X103858693Y-63738365D01*
X103858692Y-63738365D01*
X103858691Y-63738364D01*
X103858686Y-63738364D01*
X103632002Y-63718532D01*
X103631998Y-63718532D01*
X103405313Y-63738364D01*
X103405302Y-63738366D01*
X103185511Y-63797258D01*
X103185502Y-63797261D01*
X102979267Y-63893431D01*
X102979265Y-63893432D01*
X102792858Y-64023954D01*
X102631954Y-64184858D01*
X102519387Y-64345623D01*
X102464811Y-64389248D01*
X102417812Y-64398500D01*
X100274188Y-64398500D01*
X100207149Y-64378815D01*
X100172613Y-64345623D01*
X100060045Y-64184858D01*
X99899141Y-64023954D01*
X99712734Y-63893432D01*
X99712732Y-63893431D01*
X99506497Y-63797261D01*
X99506488Y-63797258D01*
X99286697Y-63738366D01*
X99286693Y-63738365D01*
X99286692Y-63738365D01*
X99286691Y-63738364D01*
X99286686Y-63738364D01*
X99060002Y-63718532D01*
X99059998Y-63718532D01*
X98833313Y-63738364D01*
X98833302Y-63738366D01*
X98613511Y-63797258D01*
X98613502Y-63797261D01*
X98407267Y-63893431D01*
X98407265Y-63893432D01*
X98220858Y-64023954D01*
X98059954Y-64184858D01*
X97929432Y-64371265D01*
X97929431Y-64371267D01*
X97833261Y-64577502D01*
X97833258Y-64577511D01*
X97774366Y-64797302D01*
X97774364Y-64797313D01*
X97754532Y-65023998D01*
X97754532Y-65024001D01*
X97774364Y-65250686D01*
X97774366Y-65250697D01*
X97833258Y-65470488D01*
X97833261Y-65470497D01*
X97929431Y-65676732D01*
X97929432Y-65676734D01*
X98059954Y-65863141D01*
X98220858Y-66024045D01*
X98220861Y-66024047D01*
X98407266Y-66154568D01*
X98613504Y-66250739D01*
X98833308Y-66309635D01*
X98995230Y-66323801D01*
X99059998Y-66329468D01*
X99060000Y-66329468D01*
X99060002Y-66329468D01*
X99116807Y-66324498D01*
X99286692Y-66309635D01*
X99506496Y-66250739D01*
X99712734Y-66154568D01*
X99899139Y-66024047D01*
X100060047Y-65863139D01*
X100138681Y-65750836D01*
X100172613Y-65702377D01*
X100227189Y-65658752D01*
X100274188Y-65649500D01*
X102417812Y-65649500D01*
X102484851Y-65669185D01*
X102519387Y-65702377D01*
X102631954Y-65863141D01*
X102792858Y-66024045D01*
X102792861Y-66024047D01*
X102979266Y-66154568D01*
X103185504Y-66250739D01*
X103405308Y-66309635D01*
X103567230Y-66323801D01*
X103631998Y-66329468D01*
X103632000Y-66329468D01*
X103632002Y-66329468D01*
X103688807Y-66324498D01*
X103858692Y-66309635D01*
X104078496Y-66250739D01*
X104284734Y-66154568D01*
X104471139Y-66024047D01*
X104632047Y-65863139D01*
X104710681Y-65750836D01*
X104744613Y-65702377D01*
X104799189Y-65658752D01*
X104846188Y-65649500D01*
X106779501Y-65649500D01*
X106846540Y-65669185D01*
X106892295Y-65721989D01*
X106903501Y-65773500D01*
X106903501Y-65871876D01*
X106909908Y-65931483D01*
X106960202Y-66066328D01*
X106960206Y-66066335D01*
X107046452Y-66181544D01*
X107046455Y-66181547D01*
X107161664Y-66267793D01*
X107161671Y-66267797D01*
X107296517Y-66318091D01*
X107296516Y-66318091D01*
X107303444Y-66318835D01*
X107356127Y-66324500D01*
X109051872Y-66324499D01*
X109111483Y-66318091D01*
X109246331Y-66267796D01*
X109361546Y-66181546D01*
X109447796Y-66066331D01*
X109498091Y-65931483D01*
X109504500Y-65871873D01*
X109504499Y-64206450D01*
X109524184Y-64139412D01*
X109576987Y-64093657D01*
X109646146Y-64083713D01*
X109709702Y-64112738D01*
X109716180Y-64118770D01*
X109828181Y-64230771D01*
X109861666Y-64292094D01*
X109864500Y-64318452D01*
X109864500Y-72587546D01*
X109844815Y-72654585D01*
X109828181Y-72675227D01*
X108618821Y-73884586D01*
X108557498Y-73918071D01*
X108499048Y-73916680D01*
X108430697Y-73898366D01*
X108430693Y-73898365D01*
X108430692Y-73898365D01*
X108317346Y-73888448D01*
X108204001Y-73878532D01*
X108203998Y-73878532D01*
X107977313Y-73898364D01*
X107977302Y-73898366D01*
X107757511Y-73957258D01*
X107757502Y-73957261D01*
X107551267Y-74053431D01*
X107551265Y-74053432D01*
X107364858Y-74183954D01*
X107203954Y-74344858D01*
X107073432Y-74531265D01*
X107073431Y-74531267D01*
X106977261Y-74737502D01*
X106977258Y-74737511D01*
X106918366Y-74957302D01*
X106918364Y-74957313D01*
X106898532Y-75183998D01*
X106898532Y-75184001D01*
X106918364Y-75410686D01*
X106918366Y-75410697D01*
X106977258Y-75630488D01*
X106977261Y-75630497D01*
X107073431Y-75836732D01*
X107073432Y-75836734D01*
X107203954Y-76023141D01*
X107364858Y-76184045D01*
X107364861Y-76184047D01*
X107551266Y-76314568D01*
X107757504Y-76410739D01*
X107977308Y-76469635D01*
X108139230Y-76483801D01*
X108203998Y-76489468D01*
X108204000Y-76489468D01*
X108204002Y-76489468D01*
X108260673Y-76484509D01*
X108430692Y-76469635D01*
X108650496Y-76410739D01*
X108856734Y-76314568D01*
X109043139Y-76184047D01*
X109204047Y-76023139D01*
X109334568Y-75836734D01*
X109430739Y-75630496D01*
X109489635Y-75410692D01*
X109509468Y-75184000D01*
X109489635Y-74957308D01*
X109471318Y-74888948D01*
X109472981Y-74819103D01*
X109503410Y-74769179D01*
X110873788Y-73398801D01*
X110886042Y-73388986D01*
X110885859Y-73388764D01*
X110891866Y-73383792D01*
X110891877Y-73383786D01*
X110922775Y-73350882D01*
X110939227Y-73333364D01*
X110949671Y-73322918D01*
X110960120Y-73312471D01*
X110964379Y-73306978D01*
X110968152Y-73302561D01*
X111000062Y-73268582D01*
X111009713Y-73251024D01*
X111020398Y-73234758D01*
X111029527Y-73222992D01*
X111086173Y-73182090D01*
X111155940Y-73178305D01*
X111216677Y-73212841D01*
X111249102Y-73274731D01*
X111251500Y-73299000D01*
X111251500Y-80647500D01*
X111231815Y-80714539D01*
X111179011Y-80760294D01*
X111127500Y-80771500D01*
X109622080Y-80771500D01*
X109555041Y-80751815D01*
X109509286Y-80699011D01*
X109499342Y-80629853D01*
X109525977Y-80569140D01*
X109543698Y-80547407D01*
X109637909Y-80367049D01*
X109693886Y-80171418D01*
X109704500Y-80052037D01*
X109704499Y-77935964D01*
X109693886Y-77816582D01*
X109637909Y-77620951D01*
X109543698Y-77440593D01*
X109491684Y-77376803D01*
X109415109Y-77282890D01*
X109257409Y-77154304D01*
X109257410Y-77154304D01*
X109257407Y-77154302D01*
X109077049Y-77060091D01*
X109077048Y-77060090D01*
X109077045Y-77060089D01*
X108944388Y-77022132D01*
X108881418Y-77004114D01*
X108881415Y-77004113D01*
X108881413Y-77004113D01*
X108790983Y-76996073D01*
X108762037Y-76993500D01*
X108762035Y-76993500D01*
X108762034Y-76993500D01*
X108283720Y-76993500D01*
X107645964Y-76993501D01*
X107616727Y-76996100D01*
X107526584Y-77004113D01*
X107330954Y-77060089D01*
X107240772Y-77107196D01*
X107150593Y-77154302D01*
X107150591Y-77154303D01*
X107150590Y-77154304D01*
X106992890Y-77282890D01*
X106866761Y-77437577D01*
X106864302Y-77440593D01*
X106828265Y-77509582D01*
X106770089Y-77620954D01*
X106732080Y-77753792D01*
X106718906Y-77799837D01*
X106714114Y-77816583D01*
X106714113Y-77816586D01*
X106703500Y-77935965D01*
X106703500Y-78244500D01*
X106683815Y-78311539D01*
X106631011Y-78357294D01*
X106579500Y-78368500D01*
X105339453Y-78368500D01*
X105272414Y-78348815D01*
X105251772Y-78332181D01*
X104293819Y-77374228D01*
X104260334Y-77312905D01*
X104257500Y-77286547D01*
X104257500Y-76398188D01*
X104277185Y-76331149D01*
X104310377Y-76296613D01*
X104358836Y-76262681D01*
X104471139Y-76184047D01*
X104632047Y-76023139D01*
X104762568Y-75836734D01*
X104858739Y-75630496D01*
X104917635Y-75410692D01*
X104937468Y-75184000D01*
X104917635Y-74957308D01*
X104858739Y-74737504D01*
X104762568Y-74531266D01*
X104632047Y-74344861D01*
X104632045Y-74344858D01*
X104471141Y-74183954D01*
X104284734Y-74053432D01*
X104284732Y-74053431D01*
X104078497Y-73957261D01*
X104078488Y-73957258D01*
X103858697Y-73898366D01*
X103858693Y-73898365D01*
X103858692Y-73898365D01*
X103858691Y-73898364D01*
X103858686Y-73898364D01*
X103632002Y-73878532D01*
X103631998Y-73878532D01*
X103405313Y-73898364D01*
X103405302Y-73898366D01*
X103185511Y-73957258D01*
X103185502Y-73957261D01*
X102979267Y-74053431D01*
X102979265Y-74053432D01*
X102792858Y-74183954D01*
X102631954Y-74344858D01*
X102501432Y-74531265D01*
X102501431Y-74531267D01*
X102405261Y-74737502D01*
X102405258Y-74737511D01*
X102346366Y-74957302D01*
X102346364Y-74957313D01*
X102326532Y-75183998D01*
X102326532Y-75184001D01*
X102346364Y-75410686D01*
X102346366Y-75410697D01*
X102405258Y-75630488D01*
X102405261Y-75630497D01*
X102501431Y-75836732D01*
X102501432Y-75836734D01*
X102631954Y-76023141D01*
X102792858Y-76184045D01*
X102953623Y-76296613D01*
X102997248Y-76351189D01*
X103006500Y-76398188D01*
X103006500Y-77514255D01*
X103004775Y-77529872D01*
X103005061Y-77529899D01*
X103004326Y-77537667D01*
X103004458Y-77541846D01*
X103003631Y-77545028D01*
X103003593Y-77545432D01*
X103003527Y-77545425D01*
X102986887Y-77609470D01*
X102935546Y-77656860D01*
X102866733Y-77668969D01*
X102802298Y-77641954D01*
X102770611Y-77603151D01*
X102685698Y-77440593D01*
X102633684Y-77376803D01*
X102557109Y-77282890D01*
X102399409Y-77154304D01*
X102399410Y-77154304D01*
X102399407Y-77154302D01*
X102219049Y-77060091D01*
X102219042Y-77060089D01*
X102086388Y-77022132D01*
X102027350Y-76984764D01*
X101997887Y-76921411D01*
X101996500Y-76902916D01*
X101996500Y-72983502D01*
X101998268Y-72967489D01*
X101998026Y-72967467D01*
X101998758Y-72959711D01*
X101998760Y-72959704D01*
X101996500Y-72887796D01*
X101996500Y-72857075D01*
X101995579Y-72849788D01*
X101995122Y-72843979D01*
X101993597Y-72795431D01*
X101987676Y-72775053D01*
X101983731Y-72756004D01*
X101981071Y-72734942D01*
X101963185Y-72689769D01*
X101961296Y-72684249D01*
X101952441Y-72653771D01*
X101947744Y-72637602D01*
X101936940Y-72619334D01*
X101928378Y-72601856D01*
X101920568Y-72582129D01*
X101920565Y-72582125D01*
X101892014Y-72542827D01*
X101888811Y-72537951D01*
X101864081Y-72496135D01*
X101864079Y-72496133D01*
X101864078Y-72496131D01*
X101849075Y-72481129D01*
X101836435Y-72466330D01*
X101823961Y-72449160D01*
X101786528Y-72418194D01*
X101782206Y-72414260D01*
X99834434Y-70466488D01*
X99824361Y-70453914D01*
X99824174Y-70454070D01*
X99819201Y-70448059D01*
X99766756Y-70398810D01*
X99745035Y-70377089D01*
X99739240Y-70372594D01*
X99734798Y-70368799D01*
X99699396Y-70335554D01*
X99699388Y-70335548D01*
X99680792Y-70325325D01*
X99664531Y-70314644D01*
X99647763Y-70301637D01*
X99624295Y-70291482D01*
X99603178Y-70282343D01*
X99597956Y-70279786D01*
X99555368Y-70256373D01*
X99555365Y-70256372D01*
X99534801Y-70251092D01*
X99516396Y-70244790D01*
X99496927Y-70236365D01*
X99496921Y-70236363D01*
X99448951Y-70228766D01*
X99443236Y-70227582D01*
X99426772Y-70223355D01*
X99396180Y-70215500D01*
X99396177Y-70215500D01*
X99374955Y-70215500D01*
X99355555Y-70213973D01*
X99334596Y-70210653D01*
X99334595Y-70210653D01*
X99310786Y-70212903D01*
X99286230Y-70215225D01*
X99280392Y-70215500D01*
X97015500Y-70215500D01*
X96948461Y-70195815D01*
X96902706Y-70143011D01*
X96891500Y-70091500D01*
X96891500Y-68154742D01*
X96893224Y-68139122D01*
X96892939Y-68139096D01*
X96893671Y-68131340D01*
X96893673Y-68131333D01*
X96891500Y-68062185D01*
X96891500Y-68032650D01*
X96890631Y-68025772D01*
X96890172Y-68019943D01*
X96888709Y-67973372D01*
X96883122Y-67954144D01*
X96879174Y-67935084D01*
X96876663Y-67915204D01*
X96859512Y-67871887D01*
X96857619Y-67866358D01*
X96844618Y-67821609D01*
X96844616Y-67821606D01*
X96834423Y-67804371D01*
X96825861Y-67786894D01*
X96818487Y-67768270D01*
X96818486Y-67768268D01*
X96791079Y-67730545D01*
X96787888Y-67725686D01*
X96764172Y-67685583D01*
X96764165Y-67685574D01*
X96750006Y-67671415D01*
X96737368Y-67656619D01*
X96725594Y-67640413D01*
X96689688Y-67610709D01*
X96685376Y-67606786D01*
X95362819Y-66284228D01*
X95329334Y-66222905D01*
X95326500Y-66196547D01*
X95326500Y-65616045D01*
X95326237Y-65612179D01*
X95323683Y-65574505D01*
X95279037Y-65394979D01*
X95196842Y-65229247D01*
X95133959Y-65151018D01*
X95080940Y-65085059D01*
X94978249Y-65002514D01*
X94936753Y-64969158D01*
X94936751Y-64969157D01*
X94936750Y-64969156D01*
X94771026Y-64886965D01*
X94769470Y-64886394D01*
X94768653Y-64885788D01*
X94764998Y-64883976D01*
X94765322Y-64883321D01*
X94713331Y-64844798D01*
X94688592Y-64779455D01*
X94703108Y-64711110D01*
X94752269Y-64661462D01*
X94769470Y-64653606D01*
X94771011Y-64653039D01*
X94771021Y-64653037D01*
X94936753Y-64570842D01*
X95080940Y-64454940D01*
X95196842Y-64310753D01*
X95279037Y-64145021D01*
X95323683Y-63965495D01*
X95326500Y-63923954D01*
X95326500Y-63076046D01*
X95323683Y-63034505D01*
X95291290Y-62904250D01*
X95294214Y-62834444D01*
X95323945Y-62786644D01*
X95472774Y-62637818D01*
X95534097Y-62604334D01*
X95560454Y-62601500D01*
X99983143Y-62601500D01*
X100050182Y-62621185D01*
X100095937Y-62673989D01*
X100106656Y-62714520D01*
X100110113Y-62753415D01*
X100166089Y-62949045D01*
X100166090Y-62949048D01*
X100166091Y-62949049D01*
X100260302Y-63129407D01*
X100260304Y-63129409D01*
X100388890Y-63287109D01*
X100482803Y-63363684D01*
X100546593Y-63415698D01*
X100726951Y-63509909D01*
X100922582Y-63565886D01*
X101041963Y-63576500D01*
X101041964Y-63576499D01*
X101041965Y-63576500D01*
X101041966Y-63576500D01*
X101520280Y-63576499D01*
X102158036Y-63576499D01*
X102277418Y-63565886D01*
X102473049Y-63509909D01*
X102653407Y-63415698D01*
X102811109Y-63287109D01*
X102939698Y-63129407D01*
X103033909Y-62949049D01*
X103089886Y-62753418D01*
X103100500Y-62634037D01*
X103100499Y-61317964D01*
X103089886Y-61198582D01*
X103033909Y-61002951D01*
X102939698Y-60822593D01*
X102811109Y-60664891D01*
X102811105Y-60664886D01*
X102810400Y-60664181D01*
X102810135Y-60663697D01*
X102807135Y-60660017D01*
X102807820Y-60659457D01*
X102776915Y-60602858D01*
X102781899Y-60533166D01*
X102823771Y-60477233D01*
X102889235Y-60452816D01*
X102898081Y-60452500D01*
X105381919Y-60452500D01*
X105448958Y-60472185D01*
G37*
%TD.AperFunction*%
%TA.AperFunction,NonConductor*%
G36*
X103051702Y-77866113D02*
G01*
X103074710Y-77894581D01*
X103074930Y-77894422D01*
X103078033Y-77898693D01*
X103079162Y-77900090D01*
X103079516Y-77900735D01*
X103106898Y-77938423D01*
X103110106Y-77943307D01*
X103133827Y-77983416D01*
X103133833Y-77983424D01*
X103147990Y-77997580D01*
X103160628Y-78012376D01*
X103172405Y-78028586D01*
X103172406Y-78028587D01*
X103208309Y-78058288D01*
X103212620Y-78062210D01*
X104518685Y-79368276D01*
X104528197Y-79377788D01*
X104538022Y-79390051D01*
X104538243Y-79389869D01*
X104543214Y-79395878D01*
X104564043Y-79415437D01*
X104593635Y-79443226D01*
X104614529Y-79464120D01*
X104620011Y-79468373D01*
X104624443Y-79472157D01*
X104658418Y-79504062D01*
X104675976Y-79513714D01*
X104692235Y-79524395D01*
X104708064Y-79536673D01*
X104750838Y-79555182D01*
X104756056Y-79557738D01*
X104796908Y-79580197D01*
X104816316Y-79585180D01*
X104834717Y-79591480D01*
X104853104Y-79599437D01*
X104896488Y-79606308D01*
X104899119Y-79606725D01*
X104904839Y-79607909D01*
X104949981Y-79619500D01*
X104970016Y-79619500D01*
X104989414Y-79621026D01*
X105009194Y-79624159D01*
X105009195Y-79624160D01*
X105009195Y-79624159D01*
X105009196Y-79624160D01*
X105055584Y-79619775D01*
X105061422Y-79619500D01*
X106579501Y-79619500D01*
X106646540Y-79639185D01*
X106692295Y-79691989D01*
X106703501Y-79743500D01*
X106703501Y-80052033D01*
X106714113Y-80171415D01*
X106770089Y-80367045D01*
X106864303Y-80547408D01*
X106882023Y-80569140D01*
X106909131Y-80633536D01*
X106897121Y-80702366D01*
X106849806Y-80753776D01*
X106785920Y-80771500D01*
X102764080Y-80771500D01*
X102697041Y-80751815D01*
X102651286Y-80699011D01*
X102641342Y-80629853D01*
X102667977Y-80569140D01*
X102685698Y-80547407D01*
X102779909Y-80367049D01*
X102835886Y-80171418D01*
X102846500Y-80052037D01*
X102846499Y-77959825D01*
X102866184Y-77892787D01*
X102918987Y-77847032D01*
X102988146Y-77837088D01*
X103051702Y-77866113D01*
G37*
%TD.AperFunction*%
%TA.AperFunction,NonConductor*%
G36*
X99797839Y-77696583D02*
G01*
X99844641Y-77748461D01*
X99856414Y-77813200D01*
X99845500Y-77935965D01*
X99845500Y-77935966D01*
X99845501Y-80052032D01*
X99845501Y-80052033D01*
X99856113Y-80171415D01*
X99912089Y-80367045D01*
X100006303Y-80547408D01*
X100024023Y-80569140D01*
X100051131Y-80633536D01*
X100039121Y-80702366D01*
X99991806Y-80753776D01*
X99927920Y-80771500D01*
X95906080Y-80771500D01*
X95839041Y-80751815D01*
X95793286Y-80699011D01*
X95783342Y-80629853D01*
X95809977Y-80569140D01*
X95827698Y-80547407D01*
X95921909Y-80367049D01*
X95977886Y-80171418D01*
X95988500Y-80052037D01*
X95988500Y-79743500D01*
X96008185Y-79676461D01*
X96060989Y-79630706D01*
X96112500Y-79619500D01*
X97453257Y-79619500D01*
X97468877Y-79621224D01*
X97468904Y-79620939D01*
X97476660Y-79621671D01*
X97476667Y-79621673D01*
X97545814Y-79619500D01*
X97575350Y-79619500D01*
X97582228Y-79618630D01*
X97588041Y-79618172D01*
X97634627Y-79616709D01*
X97653869Y-79611117D01*
X97672912Y-79607174D01*
X97692792Y-79604664D01*
X97736122Y-79587507D01*
X97741646Y-79585617D01*
X97745396Y-79584527D01*
X97786390Y-79572618D01*
X97803629Y-79562422D01*
X97821103Y-79553862D01*
X97839727Y-79546488D01*
X97839727Y-79546487D01*
X97839732Y-79546486D01*
X97877449Y-79519082D01*
X97882305Y-79515892D01*
X97922420Y-79492170D01*
X97936589Y-79477999D01*
X97951379Y-79465368D01*
X97967587Y-79453594D01*
X97997299Y-79417676D01*
X98001212Y-79413376D01*
X99443787Y-77970802D01*
X99456042Y-77960986D01*
X99455859Y-77960764D01*
X99461866Y-77955792D01*
X99461877Y-77955786D01*
X99492775Y-77922882D01*
X99509227Y-77905364D01*
X99519671Y-77894918D01*
X99530120Y-77884471D01*
X99534379Y-77878978D01*
X99538152Y-77874561D01*
X99570062Y-77840582D01*
X99579713Y-77823024D01*
X99590396Y-77806761D01*
X99602673Y-77790936D01*
X99619098Y-77752975D01*
X99663787Y-77699268D01*
X99730418Y-77678245D01*
X99797839Y-77696583D01*
G37*
%TD.AperFunction*%
%TA.AperFunction,NonConductor*%
G36*
X91645703Y-69162739D02*
G01*
X91652181Y-69168771D01*
X92128055Y-69644645D01*
X92161540Y-69705968D01*
X92160709Y-69762252D01*
X92128317Y-69892500D01*
X92125500Y-69934045D01*
X92125500Y-70781955D01*
X92128317Y-70823499D01*
X92172963Y-71003021D01*
X92172964Y-71003023D01*
X92255156Y-71168750D01*
X92371059Y-71312940D01*
X92453173Y-71378945D01*
X92515247Y-71428842D01*
X92680979Y-71511037D01*
X92680986Y-71511038D01*
X92682534Y-71511608D01*
X92683350Y-71512213D01*
X92687002Y-71514024D01*
X92686677Y-71514678D01*
X92738671Y-71553206D01*
X92763407Y-71618550D01*
X92748889Y-71686895D01*
X92699725Y-71736541D01*
X92682534Y-71744392D01*
X92680976Y-71744964D01*
X92515249Y-71827156D01*
X92371059Y-71943059D01*
X92255156Y-72087249D01*
X92172964Y-72252976D01*
X92172963Y-72252978D01*
X92128317Y-72432500D01*
X92125500Y-72474045D01*
X92125500Y-73321955D01*
X92128317Y-73363499D01*
X92172963Y-73543021D01*
X92172964Y-73543023D01*
X92255156Y-73708750D01*
X92371059Y-73852940D01*
X92427572Y-73898366D01*
X92515247Y-73968842D01*
X92680979Y-74051037D01*
X92860501Y-74095682D01*
X92860502Y-74095682D01*
X92860505Y-74095683D01*
X92897294Y-74098177D01*
X92902045Y-74098500D01*
X92902046Y-74098500D01*
X94549955Y-74098500D01*
X94553491Y-74098260D01*
X94591495Y-74095683D01*
X94771021Y-74051037D01*
X94936753Y-73968842D01*
X95080940Y-73852940D01*
X95196842Y-73708753D01*
X95279037Y-73543021D01*
X95323683Y-73363495D01*
X95326500Y-73321954D01*
X95326500Y-72741452D01*
X95346185Y-72674413D01*
X95362819Y-72653771D01*
X96463772Y-71552819D01*
X96525095Y-71519334D01*
X96551453Y-71516500D01*
X98993192Y-71516500D01*
X99060231Y-71536185D01*
X99080873Y-71552819D01*
X100659181Y-73131127D01*
X100692666Y-73192450D01*
X100695500Y-73218808D01*
X100695500Y-76902916D01*
X100675815Y-76969955D01*
X100623011Y-77015710D01*
X100605612Y-77022132D01*
X100472953Y-77060090D01*
X100472951Y-77060090D01*
X100472951Y-77060091D01*
X100292593Y-77154302D01*
X100292591Y-77154303D01*
X100292590Y-77154304D01*
X100134890Y-77282890D01*
X100008761Y-77437577D01*
X100006302Y-77440593D01*
X99919476Y-77606814D01*
X99919409Y-77606942D01*
X99870922Y-77657249D01*
X99802934Y-77673356D01*
X99737031Y-77650149D01*
X99694136Y-77594997D01*
X99685500Y-77549530D01*
X99685500Y-77528983D01*
X99687027Y-77509582D01*
X99690160Y-77489804D01*
X99685775Y-77443415D01*
X99685500Y-77437577D01*
X99685500Y-76398188D01*
X99705185Y-76331149D01*
X99738377Y-76296613D01*
X99786836Y-76262681D01*
X99899139Y-76184047D01*
X100060047Y-76023139D01*
X100190568Y-75836734D01*
X100286739Y-75630496D01*
X100345635Y-75410692D01*
X100365468Y-75184000D01*
X100345635Y-74957308D01*
X100286739Y-74737504D01*
X100190568Y-74531266D01*
X100060047Y-74344861D01*
X100060045Y-74344858D01*
X99899141Y-74183954D01*
X99712734Y-74053432D01*
X99712732Y-74053431D01*
X99506497Y-73957261D01*
X99506488Y-73957258D01*
X99286697Y-73898366D01*
X99286693Y-73898365D01*
X99286692Y-73898365D01*
X99286691Y-73898364D01*
X99286686Y-73898364D01*
X99060002Y-73878532D01*
X99059998Y-73878532D01*
X98833313Y-73898364D01*
X98833302Y-73898366D01*
X98613511Y-73957258D01*
X98613502Y-73957261D01*
X98407267Y-74053431D01*
X98407265Y-74053432D01*
X98220858Y-74183954D01*
X98059954Y-74344858D01*
X97929432Y-74531265D01*
X97929431Y-74531267D01*
X97833261Y-74737502D01*
X97833258Y-74737511D01*
X97774366Y-74957302D01*
X97774364Y-74957313D01*
X97754532Y-75183998D01*
X97754532Y-75184001D01*
X97774364Y-75410686D01*
X97774366Y-75410697D01*
X97833258Y-75630488D01*
X97833261Y-75630497D01*
X97929431Y-75836732D01*
X97929432Y-75836734D01*
X98059954Y-76023141D01*
X98220858Y-76184045D01*
X98381623Y-76296613D01*
X98425248Y-76351189D01*
X98434500Y-76398188D01*
X98434500Y-77159547D01*
X98414815Y-77226586D01*
X98398181Y-77247228D01*
X97313228Y-78332181D01*
X97251905Y-78365666D01*
X97225547Y-78368500D01*
X96112499Y-78368500D01*
X96045460Y-78348815D01*
X95999705Y-78296011D01*
X95988499Y-78244500D01*
X95988499Y-77935967D01*
X95985778Y-77905364D01*
X95977886Y-77816582D01*
X95921909Y-77620951D01*
X95827698Y-77440593D01*
X95775684Y-77376803D01*
X95699109Y-77282890D01*
X95541409Y-77154304D01*
X95541410Y-77154304D01*
X95541407Y-77154302D01*
X95361049Y-77060091D01*
X95361048Y-77060090D01*
X95361045Y-77060089D01*
X95228388Y-77022132D01*
X95165418Y-77004114D01*
X95165415Y-77004113D01*
X95165413Y-77004113D01*
X95074983Y-76996073D01*
X95046037Y-76993500D01*
X95046035Y-76993500D01*
X95046034Y-76993500D01*
X94567720Y-76993500D01*
X93929964Y-76993501D01*
X93900727Y-76996100D01*
X93810584Y-77004113D01*
X93614954Y-77060089D01*
X93524772Y-77107196D01*
X93434593Y-77154302D01*
X93434591Y-77154303D01*
X93434590Y-77154304D01*
X93276890Y-77282890D01*
X93150761Y-77437577D01*
X93148302Y-77440593D01*
X93112265Y-77509582D01*
X93054089Y-77620954D01*
X93016080Y-77753792D01*
X93002906Y-77799837D01*
X92998114Y-77816583D01*
X92998113Y-77816586D01*
X92987500Y-77935965D01*
X92987500Y-77935966D01*
X92987501Y-80052032D01*
X92987501Y-80052033D01*
X92998113Y-80171415D01*
X93054089Y-80367045D01*
X93148303Y-80547408D01*
X93166023Y-80569140D01*
X93193131Y-80633536D01*
X93181121Y-80702366D01*
X93133806Y-80753776D01*
X93069920Y-80771500D01*
X91564500Y-80771500D01*
X91497461Y-80751815D01*
X91451706Y-80699011D01*
X91440500Y-80647500D01*
X91440500Y-69256452D01*
X91460185Y-69189413D01*
X91512989Y-69143658D01*
X91582147Y-69133714D01*
X91645703Y-69162739D01*
G37*
%TD.AperFunction*%
M02*
