%TF.GenerationSoftware,KiCad,Pcbnew,7.0.9*%
%TF.CreationDate,2025-02-23T19:45:51+01:00*%
%TF.ProjectId,filament-jar,66696c61-6d65-46e7-942d-6a61722e6b69,rev?*%
%TF.SameCoordinates,Original*%
%TF.FileFunction,Drillmap*%
%TF.FilePolarity,Positive*%
%FSLAX45Y45*%
G04 Gerber Fmt 4.5, Leading zero omitted, Abs format (unit mm)*
G04 Created by KiCad (PCBNEW 7.0.9) date 2025-02-23 19:45:51*
%MOMM*%
%LPD*%
G01*
G04 APERTURE LIST*
%ADD10C,0.100000*%
%ADD11C,0.200000*%
G04 APERTURE END LIST*
D10*
X11125200Y-8077200D02*
X11125200Y-5080000D01*
X11125200Y-5080000D02*
X10795000Y-5080000D01*
X9474200Y-6045200D02*
X10795000Y-6045200D01*
X9144000Y-5080000D02*
X9144000Y-8077200D01*
X9144000Y-8077200D02*
X11125200Y-8077200D01*
X10795000Y-6045200D02*
X10795000Y-5080000D01*
X9474200Y-5080000D02*
X9474200Y-6045200D01*
X9474200Y-5080000D02*
X9144000Y-5080000D01*
D11*
X9399777Y-8393684D02*
X9399777Y-8193684D01*
X9399777Y-8193684D02*
X9447396Y-8193684D01*
X9447396Y-8193684D02*
X9475967Y-8203208D01*
X9475967Y-8203208D02*
X9495015Y-8222255D01*
X9495015Y-8222255D02*
X9504539Y-8241303D01*
X9504539Y-8241303D02*
X9514063Y-8279398D01*
X9514063Y-8279398D02*
X9514063Y-8307969D01*
X9514063Y-8307969D02*
X9504539Y-8346065D01*
X9504539Y-8346065D02*
X9495015Y-8365112D01*
X9495015Y-8365112D02*
X9475967Y-8384160D01*
X9475967Y-8384160D02*
X9447396Y-8393684D01*
X9447396Y-8393684D02*
X9399777Y-8393684D01*
X9599777Y-8393684D02*
X9599777Y-8260350D01*
X9599777Y-8298446D02*
X9609301Y-8279398D01*
X9609301Y-8279398D02*
X9618824Y-8269874D01*
X9618824Y-8269874D02*
X9637872Y-8260350D01*
X9637872Y-8260350D02*
X9656920Y-8260350D01*
X9723586Y-8393684D02*
X9723586Y-8260350D01*
X9723586Y-8193684D02*
X9714063Y-8203208D01*
X9714063Y-8203208D02*
X9723586Y-8212731D01*
X9723586Y-8212731D02*
X9733110Y-8203208D01*
X9733110Y-8203208D02*
X9723586Y-8193684D01*
X9723586Y-8193684D02*
X9723586Y-8212731D01*
X9847396Y-8393684D02*
X9828348Y-8384160D01*
X9828348Y-8384160D02*
X9818824Y-8365112D01*
X9818824Y-8365112D02*
X9818824Y-8193684D01*
X9952158Y-8393684D02*
X9933110Y-8384160D01*
X9933110Y-8384160D02*
X9923586Y-8365112D01*
X9923586Y-8365112D02*
X9923586Y-8193684D01*
X10180729Y-8393684D02*
X10180729Y-8193684D01*
X10180729Y-8193684D02*
X10247396Y-8336541D01*
X10247396Y-8336541D02*
X10314063Y-8193684D01*
X10314063Y-8193684D02*
X10314063Y-8393684D01*
X10495015Y-8393684D02*
X10495015Y-8288922D01*
X10495015Y-8288922D02*
X10485491Y-8269874D01*
X10485491Y-8269874D02*
X10466444Y-8260350D01*
X10466444Y-8260350D02*
X10428348Y-8260350D01*
X10428348Y-8260350D02*
X10409301Y-8269874D01*
X10495015Y-8384160D02*
X10475967Y-8393684D01*
X10475967Y-8393684D02*
X10428348Y-8393684D01*
X10428348Y-8393684D02*
X10409301Y-8384160D01*
X10409301Y-8384160D02*
X10399777Y-8365112D01*
X10399777Y-8365112D02*
X10399777Y-8346065D01*
X10399777Y-8346065D02*
X10409301Y-8327017D01*
X10409301Y-8327017D02*
X10428348Y-8317493D01*
X10428348Y-8317493D02*
X10475967Y-8317493D01*
X10475967Y-8317493D02*
X10495015Y-8307969D01*
X10590253Y-8260350D02*
X10590253Y-8460350D01*
X10590253Y-8269874D02*
X10609301Y-8260350D01*
X10609301Y-8260350D02*
X10647396Y-8260350D01*
X10647396Y-8260350D02*
X10666444Y-8269874D01*
X10666444Y-8269874D02*
X10675967Y-8279398D01*
X10675967Y-8279398D02*
X10685491Y-8298446D01*
X10685491Y-8298446D02*
X10685491Y-8355588D01*
X10685491Y-8355588D02*
X10675967Y-8374636D01*
X10675967Y-8374636D02*
X10666444Y-8384160D01*
X10666444Y-8384160D02*
X10647396Y-8393684D01*
X10647396Y-8393684D02*
X10609301Y-8393684D01*
X10609301Y-8393684D02*
X10590253Y-8384160D01*
X10771205Y-8374636D02*
X10780729Y-8384160D01*
X10780729Y-8384160D02*
X10771205Y-8393684D01*
X10771205Y-8393684D02*
X10761682Y-8384160D01*
X10761682Y-8384160D02*
X10771205Y-8374636D01*
X10771205Y-8374636D02*
X10771205Y-8393684D01*
X10771205Y-8269874D02*
X10780729Y-8279398D01*
X10780729Y-8279398D02*
X10771205Y-8288922D01*
X10771205Y-8288922D02*
X10761682Y-8279398D01*
X10761682Y-8279398D02*
X10771205Y-8269874D01*
X10771205Y-8269874D02*
X10771205Y-8288922D01*
M02*
